{"scene":0,"scenes":[{"nodes":[0]}],"asset":{"version":"2.0","generator":"https://github.com/mikedh/trimesh"},"accessors":[{"componentType":5125,"type":"SCALAR","bufferView":0,"count":4116,"max":[805],"min":[0]},{"componentType":5126,"type":"VEC3","byteOffset":0,"bufferView":1,"count":806,"max":[83.96269989013672,9.23151969909668,77.41790008544922],"min":[-78.0177001953125,-39.8119010925293,-77.66790008544922]},{"componentType":5126,"count":806,"type":"VEC3","byteOffset":0,"bufferView":2,"max":[0.9983921051025391,1.0,0.9996753931045532],"min":[-0.9983383417129517,-1.0,-0.9996683597564697]}],"meshes":[{"name":"magnolia.obj","extras":{},"primitives":[{"attributes":{"POSITION":1,"NORMAL":2},"indices":0,"mode":4}]}],"nodes":[{"name":"world","children":[1]},{"name":"magnolia.obj","mesh":0}],"buffers":[{"uri":"gltf_buffer_0.bin","byteLength":16464},{"uri":"gltf_buffer_1.bin","byteLength":9672},{"uri":"gltf_buffer_2.bin","byteLength":9672}],"bufferViews":[{"buffer":0,"byteOffset":0,"byteLength":16464},{"buffer":1,"byteOffset":0,"byteLength":9672},{"buffer":2,"byteOffset":0,"byteLength":9672}]}